<?xml version="1.0" standalone="no"?>
<svg xmlns:xlink="http://www.w3.org/1999/xlink" id="wave" style="transform:rotate(180deg); transition: 0.3s;" viewBox="0 0 1980 490" version="1.1" xmlns="http://www.w3.org/2000/svg"><defs><linearGradient id="sw-gradient-0" x1="0" x2="0" y1="1" y2="0"><stop stop-color="rgba(59, 59, 59, 1)" offset="0%"/><stop stop-color="rgba(59, 59, 59, 1)" offset="100%"/></linearGradient></defs><path style="transform:translate(0, 0px); opacity:1" fill="url(#sw-gradient-0)" d="M0,147L120,122.5C240,98,480,49,720,32.7C960,16,1200,33,1440,65.3C1680,98,1920,147,2160,147C2400,147,2640,98,2880,65.3C3120,33,3360,16,3600,24.5C3840,33,4080,65,4320,81.7C4560,98,4800,98,5040,130.7C5280,163,5520,229,5760,277.7C6000,327,6240,359,6480,359.3C6720,359,6960,327,7200,277.7C7440,229,7680,163,7920,122.5C8160,82,8400,65,8640,98C8880,131,9120,212,9360,269.5C9600,327,9840,359,10080,343C10320,327,10560,261,10800,196C11040,131,11280,65,11520,57.2C11760,49,12000,98,12240,130.7C12480,163,12720,180,12960,204.2C13200,229,13440,261,13680,294C13920,327,14160,359,14400,310.3C14640,261,14880,131,15120,89.8C15360,49,15600,98,15840,98C16080,98,16320,49,16560,32.7C16800,16,17040,33,17160,40.8L17280,49L17280,490L17160,490C17040,490,16800,490,16560,490C16320,490,16080,490,15840,490C15600,490,15360,490,15120,490C14880,490,14640,490,14400,490C14160,490,13920,490,13680,490C13440,490,13200,490,12960,490C12720,490,12480,490,12240,490C12000,490,11760,490,11520,490C11280,490,11040,490,10800,490C10560,490,10320,490,10080,490C9840,490,9600,490,9360,490C9120,490,8880,490,8640,490C8400,490,8160,490,7920,490C7680,490,7440,490,7200,490C6960,490,6720,490,6480,490C6240,490,6000,490,5760,490C5520,490,5280,490,5040,490C4800,490,4560,490,4320,490C4080,490,3840,490,3600,490C3360,490,3120,490,2880,490C2640,490,2400,490,2160,490C1920,490,1680,490,1440,490C1200,490,960,490,720,490C480,490,240,490,120,490L0,490Z"/></svg>